<?xml version="1.0" encoding="utf-8"?>
<!-- Generator: Adobe Illustrator 22.0.0, SVG Export Plug-In . SVG Version: 6.00 Build 0)  -->
<svg version="1.1" id="Layer_3" xmlns="http://www.w3.org/2000/svg" xmlns:xlink="http://www.w3.org/1999/xlink" x="0px" y="0px"
	 viewBox="0 0 176.7 39.1" style="enable-background:new 0 0 176.7 39.1;" xml:space="preserve">
<style type="text/css">
	.st0{fill:#FFC303;}
</style>
<g>
	<path class="st0" d="M48.4,5.2C50.1,5.6,51.3,6,52,6.5c0.7,0.5,1,1,1.1,1.5c-2.9-0.5-5.6-0.8-8-0.9s-4.6,0-6.6,0.2
		c0.6,0.4,0.9,0.8,1.1,1.3c0.2,0.5,0.2,0.9,0.2,1.3c-0.4,1.7-0.9,3.5-1.4,5.6c-0.5,2-1.1,4.1-1.7,6.1c-0.6,2-1.1,3.9-1.6,5.7
		s-0.9,3.2-1.2,4.3c-0.9-0.1-1.7-0.3-2.4-0.5c-0.7-0.2-1.3-0.5-1.8-0.9c-0.5-0.4-0.8-0.8-1-1.3c-0.2-0.5-0.1-1.2,0.2-2
		c0.3-0.9,0.8-2.1,1.3-3.6c0.5-1.5,1.1-3.2,1.8-5c0.6-1.8,1.3-3.6,2-5.5c0.7-1.9,1.3-3.5,1.9-5c-2.5,0.5-4.6,1.2-6.3,2.1
		c-1.7,0.9-3,1.8-4,2.9c-1,1-1.6,2-1.8,3c-0.3,1-0.2,1.8,0.2,2.4c-1.5-0.1-2.6-0.4-3.5-0.9c-0.9-0.5-1.5-1-1.9-1.6
		c-0.4-0.6-0.6-1.2-0.5-1.9c0-0.7,0.3-1.3,0.7-1.8c0.8-1,2.2-2.1,4.1-3.1c1.9-1.1,4.1-2,6.8-2.7c2.6-0.8,5.5-1.2,8.8-1.4
		C41.5,4.4,44.9,4.6,48.4,5.2z"/>
	<path class="st0" d="M46.5,30c-1.3,0-2.4-0.4-3-1.1c-0.7-0.7-1.1-1.7-1.3-2.8c-0.1-1.1,0-2.3,0.4-3.6c0.4-1.3,1-2.5,1.9-3.6
		s1.9-2,3.2-2.8c1.3-0.7,2.7-1.1,4.3-1.1c1.2,0,2.2,0.3,2.8,0.9c0.6,0.6,1,1.4,1.1,2.4c0.1,1,0,2-0.3,3.2c-0.3,1.2-0.8,2.3-1.5,3.3
		c0.5,0,1-0.2,1.5-0.5c0.5-0.4,1-0.8,1.4-1.2c0.4-0.5,0.8-0.9,1.2-1.4c0.4-0.5,0.7-0.9,0.9-1.1c0,0,0,0.1,0.1,0.2
		c0.1,0.1,0.1,0.3,0.2,0.5c0,0.2,0.1,0.4,0,0.7c0,0.3-0.2,0.5-0.4,0.8c-0.2,0.2-0.3,0.3-0.4,0.5c-0.1,0.2-0.2,0.3-0.3,0.5
		c-0.4,0.5-0.8,0.9-1.2,1.2c-0.4,0.3-0.8,0.6-1.1,0.8c-1.1,0.6-2.1,0.8-3.1,0.8c-0.8,1-1.8,1.8-2.9,2.4C48.9,29.7,47.8,30,46.5,30z
		 M47.2,28.2c0.5,0,0.9-0.3,1.4-0.8c0.5-0.5,0.9-1.2,1.4-1.9c-0.5-0.5-0.9-1.1-1-1.9c-0.1-0.4-0.1-0.8,0.1-1.1
		c0.2-0.3,0.4-0.6,0.7-0.7c0.3-0.2,0.6-0.3,0.9-0.3s0.7,0.1,0.9,0.3c0.2-0.7,0.4-1.4,0.6-2.1s0.2-1.3,0.3-1.8s0-1-0.1-1.3
		c-0.1-0.3-0.3-0.5-0.6-0.5c-0.6,0-1.2,0.3-1.9,0.9c-0.6,0.6-1.2,1.3-1.7,2.2c-0.5,0.9-1,1.9-1.4,2.9c-0.4,1-0.6,2-0.8,2.9
		c-0.1,0.9-0.1,1.6,0.1,2.2C46.3,27.9,46.6,28.2,47.2,28.2z"/>
	<path class="st0" d="M70.1,9.9c0.2-0.4,0.5-0.7,0.9-0.8c0.5-0.1,0.9-0.2,1.4-0.2c0.4,0,0.9,0.1,1.2,0.2c0.4,0.1,0.5,0.3,0.5,0.4
		c-0.1,0.4-0.3,1.1-0.5,2c-0.3,0.9-0.5,1.8-0.9,2.9c-0.3,1.1-0.7,2.2-1.1,3.5c-0.4,1.2-0.8,2.4-1.1,3.5c-0.3,1.1-0.6,2-0.9,2.9
		c-0.3,0.9-0.4,1.5-0.5,1.8c-0.2,0.9-0.2,1.4,0,1.4s0.7-0.4,1.2-1c0.6-0.6,1.2-1.5,2-2.5c0.8-1,1.6-2.1,2.4-3.1c0,0,0,0.1,0.1,0.2
		c0.1,0.1,0.2,0.3,0.3,0.5c0.1,0.2,0.1,0.4,0,0.7c0,0.3-0.2,0.5-0.4,0.8c-0.7,0.8-1.3,1.5-1.8,2.1c-0.5,0.6-1,1.2-1.5,1.7
		c-0.5,0.5-0.9,1-1.4,1.4c-0.5,0.4-1,0.9-1.7,1.3c-0.3,0.3-0.7,0.4-1.1,0.5c-0.4,0.1-0.8,0.1-1.2,0c-0.4-0.1-0.7-0.2-1-0.4
		c-0.3-0.2-0.5-0.4-0.5-0.7c-0.1-0.4,0-1,0.1-1.8c-0.8,0.7-1.6,1.4-2.5,2c-0.9,0.6-1.7,0.9-2.5,0.9c-0.7,0-1.3-0.1-1.8-0.5
		c-0.4-0.3-0.7-0.7-0.9-1.1c-0.3-1.1-0.3-2.5,0-4c0.4-1.5,1-3,1.9-4.4c0.9-1.4,2.1-2.6,3.5-3.5c1.4-1,3-1.4,4.8-1.4
		c0.2,0,0.3,0,0.5,0c0.1,0,0.3,0,0.4,0L70.1,9.9z M64.8,19.2c0.7-0.1,1.2-0.3,1.7-0.6c0.5-0.3,0.8-0.6,1.1-1c0-0.2,0.1-0.3,0.1-0.4
		c0-0.1,0.1-0.2,0.1-0.4c0-0.2-0.1-0.4-0.4-0.5c-0.2-0.1-0.5-0.1-1,0c-0.7,0.2-1.4,0.8-2,1.8c-0.6,1-1.2,2-1.7,3.2
		c-0.5,1.2-0.8,2.3-1,3.5c-0.2,1.1-0.3,2-0.2,2.5c0,0.3,0.2,0.4,0.5,0.3c0.3-0.1,0.7-0.3,1.1-0.6c0.4-0.3,0.8-0.7,1.2-1.1
		s0.7-0.8,1-1.1c0.2-0.8,0.4-1.6,0.7-2.5c0.3-0.9,0.5-1.8,0.8-2.7C65.9,19.8,65.2,19.6,64.8,19.2z"/>
	<path class="st0" d="M77.5,30c-1.3,0-2.4-0.4-3-1.1c-0.7-0.7-1.1-1.7-1.3-2.8c-0.1-1.1,0-2.3,0.4-3.6c0.4-1.3,1-2.5,1.9-3.6
		s1.9-2,3.2-2.8c1.3-0.7,2.7-1.1,4.3-1.1c1.2,0,2.2,0.3,2.8,0.9c0.6,0.6,1,1.4,1.1,2.4c0.1,1,0,2-0.3,3.2c-0.3,1.2-0.8,2.3-1.5,3.3
		c0.5,0,1-0.2,1.5-0.5c0.5-0.4,1-0.8,1.4-1.2c0.4-0.5,0.8-0.9,1.2-1.4c0.4-0.5,0.7-0.9,0.9-1.1c0,0,0,0.1,0.1,0.2
		c0.1,0.1,0.1,0.3,0.2,0.5c0,0.2,0.1,0.4,0,0.7c0,0.3-0.2,0.5-0.4,0.8c-0.2,0.2-0.3,0.3-0.4,0.5c-0.1,0.2-0.2,0.3-0.3,0.5
		c-0.4,0.5-0.8,0.9-1.2,1.2c-0.4,0.3-0.8,0.6-1.1,0.8c-1.1,0.6-2.1,0.8-3.1,0.8c-0.8,1-1.8,1.8-2.9,2.4C79.9,29.7,78.8,30,77.5,30z
		 M78.2,28.2c0.5,0,0.9-0.3,1.4-0.8c0.5-0.5,0.9-1.2,1.4-1.9c-0.5-0.5-0.9-1.1-1-1.9c-0.1-0.4-0.1-0.8,0.1-1.1
		c0.2-0.3,0.4-0.6,0.7-0.7c0.3-0.2,0.6-0.3,0.9-0.3s0.7,0.1,0.9,0.3c0.2-0.7,0.4-1.4,0.6-2.1s0.2-1.3,0.3-1.8s0-1-0.1-1.3
		c-0.1-0.3-0.3-0.5-0.6-0.5c-0.6,0-1.2,0.3-1.9,0.9c-0.6,0.6-1.2,1.3-1.7,2.2c-0.5,0.9-1,1.9-1.4,2.9c-0.4,1-0.6,2-0.8,2.9
		c-0.1,0.9-0.1,1.6,0.1,2.2C77.3,27.9,77.6,28.2,78.2,28.2z"/>
	<path class="st0" d="M129,32.2c0.3,0.6,0.3,1.1,0.1,1.5s-0.6,0.8-1.1,1.1c-0.5,0.3-1.2,0.5-1.9,0.6c-0.8,0.1-1.5,0.1-2.3,0.1
		c-1.2-0.1-2.3-0.3-3.3-0.7s-2-0.7-2.9-1.1c-0.9-0.4-1.8-0.9-2.6-1.4c-0.9-0.5-1.7-1-2.6-1.4c-0.9,0.6-1.9,1-3.1,1.3
		c-1.2,0.3-2.5,0.5-4,0.5c-2.1,0-3.8-0.3-4.9-0.9c-1.1-0.6-1.8-1.2-1.9-1.8c-0.1-0.4-0.1-0.7,0-1.1c0.1-0.4,0.4-0.7,0.8-1
		c0.4-0.3,1-0.5,1.8-0.7c0.8-0.2,1.8-0.3,2.9-0.4c1.3-0.1,2.4,0,3.4,0.2c1,0.2,2,0.5,3,0.8c0.8-1.4,1.5-3,2-4.9
		c0.5-1.9,1-3.9,1.6-5.9c-1.9,0.2-3.4,0.3-4.6,0.1c-1.9-0.2-3.4-0.5-4.4-1.1c-1.1-0.6-1.8-1.5-2.3-2.7c1.2,0.4,2.5,0.7,3.9,0.9
		c1.5,0.2,3.1,0.2,5,0.2c0.5,0,1,0,1.6-0.1c0.6,0,1.1-0.1,1.7-0.1c0.4-1.3,1-2.6,1.6-3.8c0.6-1.2,1.4-2.2,2.3-3.1
		c0.9-0.9,2.1-1.6,3.4-2.1s2.9-0.7,4.7-0.6c1.1,0.1,2,0.4,2.7,0.7c0.7,0.4,1.2,0.9,1.4,1.7c0.3,1.1,0.1,2.1-0.4,3
		c-0.5,0.9-1.3,1.8-2.4,2.5c-1.1,0.8-2.3,1.4-3.8,2c-1.4,0.6-2.9,1.1-4.5,1.5c-0.3,1.2-0.6,2.4-0.9,3.7c-0.3,1.3-0.7,2.5-1.1,3.7
		c-0.4,1.2-0.9,2.3-1.5,3.4c-0.6,1.1-1.3,2-2.2,2.9c1,0.5,1.9,0.9,2.9,1.3c1,0.4,2.1,0.8,3.3,1.1c1.2,0.3,2.5,0.5,3.9,0.5
		C125.7,32.6,127.3,32.5,129,32.2z M105.2,31.1c0.9,0,1.6-0.1,2.3-0.4c0.7-0.3,1.3-0.7,1.8-1.2c-0.9-0.3-1.8-0.6-2.8-0.8
		c-0.7-0.1-1.5-0.2-2.2-0.2c-0.7,0-1.4,0-2,0.1c-0.6,0.1-1,0.2-1.3,0.4c-0.3,0.2-0.4,0.4-0.4,0.7c0.1,0.4,0.6,0.7,1.4,0.9
		C102.9,31,103.9,31.1,105.2,31.1z M127.2,6.4c-0.9,0-1.7,0.2-2.4,0.5s-1.3,0.8-1.8,1.4c-0.5,0.6-0.9,1.3-1.3,2.1
		c-0.4,0.8-0.7,1.7-1,2.7c1.2-0.3,2.3-0.6,3.3-1c1-0.4,1.9-0.9,2.7-1.4c0.8-0.5,1.3-1,1.8-1.6c0.4-0.6,0.6-1.2,0.5-1.9
		c0-0.2-0.2-0.4-0.6-0.6C128.1,6.5,127.7,6.4,127.2,6.4z"/>
	<path class="st0" d="M122.3,28c0.1-1.9,0.5-3.9,1.2-5.9c0.7-2,1.5-4,2.3-5.9c0.2-0.4,0.5-0.7,0.9-0.8c0.4-0.1,0.9-0.2,1.3-0.2
		c0.4,0,0.8,0.1,1.1,0.2c0.3,0.1,0.5,0.3,0.4,0.4l-3,10c-0.2,0.9-0.2,1.4,0,1.4c0.3,0,0.7-0.4,1.3-1c0.6-0.6,1.3-1.5,2.1-2.5
		c0.8-1,1.6-2.1,2.5-3.1c0,0,0,0.1,0.1,0.2c0.1,0.1,0.2,0.3,0.3,0.5s0.1,0.4,0,0.7c0,0.3-0.2,0.5-0.4,0.8c-0.7,0.8-1.3,1.5-1.8,2.1
		c-0.5,0.6-1,1.2-1.4,1.7s-0.9,1-1.4,1.4c-0.5,0.4-1.1,0.9-1.7,1.3c-0.3,0.3-0.7,0.4-1.2,0.5c-0.5,0-0.9,0-1.3-0.2
		c-0.4-0.1-0.7-0.3-1-0.6C122.4,28.8,122.3,28.4,122.3,28z M128,11.9c0.3-0.5,0.7-0.8,1.3-0.9c0.6-0.2,1.2-0.1,1.8,0
		c0.6,0.2,0.9,0.6,1.1,1.1c0.1,0.5,0.1,0.9-0.2,1.4c-0.3,0.5-0.8,0.8-1.3,0.9c-0.6,0.2-1.2,0.2-1.7,0c-0.6-0.2-0.9-0.6-1.1-1
		S127.7,12.4,128,11.9z"/>
	<path class="st0" d="M134,27.7c0.1,0.4,0.4,0.6,0.7,0.8c0.3,0.2,0.6,0.3,0.9,0.3c0.6,0,1-0.1,1.5-0.3c0.4-0.3,0.7-0.5,0.8-0.8
		c0.3-0.4,0.4-0.9,0.2-1.3c-0.2-0.4-0.6-0.8-1.1-1.2c-0.5-0.4-1.1-0.8-1.8-1.2c-0.7-0.4-1.3-0.8-1.9-1.3c-0.6-0.5-1-0.9-1.4-1.4
		s-0.4-1-0.3-1.6c0.4-1.3,1.1-2.4,2.3-3.2c1.2-0.8,2.7-1.2,4.6-1.3c1.7,0,3,0.2,3.8,0.7c0.9,0.5,1.5,1.2,1.8,2.1
		c0.2,0.8,0.1,1.4-0.4,2s-1,1.1-1.8,1.4s-1.5,0.5-2.3,0.4c-0.8-0.1-1.5-0.4-2-1c0.9-0.2,1.5-0.6,2-1.3c0.5-0.7,0.8-1.4,0.9-2
		c0-0.6-0.1-1-0.5-1.1c-0.3-0.1-0.7,0-1.2,0.2c-0.5,0.2-1,0.6-1.5,1c-0.5,0.4-0.9,0.8-1.1,1.1c-0.4,0.5-0.5,0.9-0.4,1.3
		c0.1,0.4,0.4,0.7,0.8,1c0.4,0.3,0.9,0.6,1.4,0.9c0.6,0.3,1.1,0.7,1.7,1c0.5,0.4,1,0.8,1.4,1.3c0.4,0.5,0.6,1,0.6,1.6
		c0.1,1.2-0.4,2.2-1.4,3c-1,0.8-2.5,1.2-4.5,1.2c-0.9,0-1.7-0.1-2.5-0.3c-0.7-0.2-1.4-0.5-1.9-0.8c-0.5-0.3-0.9-0.8-1.1-1.2
		s-0.2-1-0.1-1.5c0.1-0.5,0.4-0.9,0.9-1.3c0.5-0.3,1-0.5,1.7-0.6c0.6-0.1,1.3,0,1.9,0.2c0.7,0.2,1.2,0.6,1.7,1.2
		c-0.9,0.2-1.6,0.4-2.1,0.8C134.1,26.8,133.9,27.2,134,27.7z"/>
	<path class="st0" d="M151.7,12.2h2.5c0.4,0,0.6,0,0.8,0.1c0.2,0.1,0.2,0.2,0.2,0.3c0,0.1-0.2,0.3-0.4,0.4c-0.2,0.1-0.5,0.2-0.9,0.2
		h-2.6l-3.5,12.6c-0.2,0.9-0.2,1.4,0,1.4s0.7-0.4,1.3-1c0.6-0.6,1.3-1.5,2.1-2.5c0.8-1,1.6-2.1,2.5-3.1c0,0,0,0.1,0.1,0.2
		c0.1,0.1,0.2,0.3,0.3,0.5s0.1,0.4,0,0.7s-0.2,0.5-0.4,0.8c-0.7,0.8-1.3,1.5-1.8,2.1c-0.5,0.6-1,1.2-1.5,1.7s-0.9,1-1.4,1.4
		c-0.5,0.4-1,0.9-1.7,1.3c-0.3,0.3-0.7,0.4-1.2,0.5c-0.5,0-0.9,0-1.3-0.2c-0.4-0.1-0.7-0.3-1-0.6s-0.4-0.7-0.4-1
		c0.1-0.8,0.2-1.6,0.3-2.4c0.2-0.8,0.4-1.7,0.7-2.7c0.5-1.6,1-3.3,1.5-5c0.5-1.7,1-3.2,1.5-4.6h-0.4c-0.7,0-1-0.2-1-0.5
		c0-0.3,0.4-0.5,1.3-0.5h0.5c0.3-0.9,0.6-1.7,0.9-2.4c0.2-0.4,0.5-0.7,0.9-0.8c0.4-0.1,0.9-0.2,1.3-0.2c0.4,0,0.8,0.1,1.1,0.2
		c0.3,0.1,0.5,0.3,0.4,0.4L151.7,12.2z"/>
</g>
</svg>
